STARTFONT   2.1
FONT -windows-PixelCarnage Monospace-medium-r-normal--14-90-96-96-c-90-microsoft-cp1252
SIZE  9  96   96
FONTBOUNDINGBOX 9  14  0  -3
STARTPROPERTIES  4
FONT_ASCENT 11
FONT_DESCENT 3
CAP_HEIGHT 9
DEFAULT_CHAR 8320
ENDPROPERTIES
CHARS  256
STARTCHAR 0
ENCODING 0
SWIDTH    9000    0
DWIDTH    9    0
BBX  9  14  0   -3
BITMAP
0000
0000
0000
0000
0000
0000
0000
0000
0000
0000
0000
0000
0000
0000
ENDCHAR
STARTCHAR 1
ENCODING 1
SWIDTH    9000    0
DWIDTH    9    0
BBX  9  14  0   -3
BITMAP
0000
0000
1E00
2100
4080
5280
4080
5E80
4C80
4080
2100
1E00
0000
0000
ENDCHAR
STARTCHAR 2
ENCODING 2
SWIDTH    9000    0
DWIDTH    9    0
BBX  9  14  0   -3
BITMAP
0000
0000
1E00
3F00
7F80
6D80
7F80
6180
7380
7F80
3F00
1E00
0000
0000
ENDCHAR
STARTCHAR 3
ENCODING 3
SWIDTH    9000    0
DWIDTH    9    0
BBX  9  14  0   -3
BITMAP
0000
0000
0000
3600
7F00
7F00
7F00
7F00
3E00
1C00
0800
0000
0000
0000
ENDCHAR
STARTCHAR 4
ENCODING 4
SWIDTH    9000    0
DWIDTH    9    0
BBX  9  14  0   -3
BITMAP
0000
0000
0000
0800
1C00
3E00
7F00
3E00
1C00
0800
0000
0000
0000
0000
ENDCHAR
STARTCHAR 5
ENCODING 5
SWIDTH    9000    0
DWIDTH    9    0
BBX  9  14  0   -3
BITMAP
0000
0000
0C00
1E00
0C00
3300
7F80
3300
0C00
0C00
1E00
0000
0000
0000
ENDCHAR
STARTCHAR 6
ENCODING 6
SWIDTH    9000    0
DWIDTH    9    0
BBX  9  14  0   -3
BITMAP
0000
0000
0C00
1E00
3F00
7F80
7F80
3F00
0C00
0C00
1E00
0000
0000
0000
ENDCHAR
STARTCHAR 7
ENCODING 7
SWIDTH    9000    0
DWIDTH    9    0
BBX  9  14  0   -3
BITMAP
0000
0000
0000
0000
0000
0C00
1E00
1E00
0C00
0000
0000
0000
0000
0000
ENDCHAR
STARTCHAR 8
ENCODING 8
SWIDTH    9000    0
DWIDTH    9    0
BBX  9  14  0   -3
BITMAP
FF80
FF80
FF80
FF80
FF80
F380
E180
E180
F380
FF80
FF80
FF80
FF80
FF80
ENDCHAR
STARTCHAR 9
ENCODING 9
SWIDTH    9000    0
DWIDTH    9    0
BBX  9  14  0   -3
BITMAP
0000
0000
0000
0000
1E00
3F00
3300
3300
3F00
1E00
0000
0000
0000
0000
ENDCHAR
STARTCHAR 10
ENCODING 10
SWIDTH    9000    0
DWIDTH    9    0
BBX  9  14  0   -3
BITMAP
FF80
FF80
FF80
FF80
E180
C080
CC80
CC80
C080
E180
FF80
FF80
FF80
FF80
ENDCHAR
STARTCHAR 11
ENCODING 11
SWIDTH    9000    0
DWIDTH    9    0
BBX  9  14  0   -3
BITMAP
0000
0000
0F80
0380
0680
0C80
3C00
6600
6600
6600
3C00
0000
0000
0000
ENDCHAR
STARTCHAR 12
ENCODING 12
SWIDTH    9000    0
DWIDTH    9    0
BBX  9  14  0   -3
BITMAP
0000
0000
1E00
3300
3300
3300
1E00
0C00
3F00
0C00
0C00
0000
0000
0000
ENDCHAR
STARTCHAR 13
ENCODING 13
SWIDTH    9000    0
DWIDTH    9    0
BBX  9  14  0   -3
BITMAP
0000
0000
1F00
1980
1F00
1980
1800
1800
3800
7800
7000
0000
0000
0000
ENDCHAR
STARTCHAR 14
ENCODING 14
SWIDTH    9000    0
DWIDTH    9    0
BBX  9  14  0   -3
BITMAP
0000
0000
1F80
1980
1F80
1980
1980
1980
3B80
7F80
7700
0000
0000
0000
ENDCHAR
STARTCHAR 15
ENCODING 15
SWIDTH    9000    0
DWIDTH    9    0
BBX  9  14  0   -3
BITMAP
0000
0C00
0C00
0C00
6D80
1E00
7380
1E00
6D80
0C00
0C00
0C00
0000
0000
ENDCHAR
STARTCHAR 16
ENCODING 16
SWIDTH    9000    0
DWIDTH    9    0
BBX  9  14  0   -3
BITMAP
0000
0000
4000
6000
7000
7C00
7F00
7C00
7000
6000
4000
0000
0000
0000
ENDCHAR
STARTCHAR 17
ENCODING 17
SWIDTH    9000    0
DWIDTH    9    0
BBX  9  14  0   -3
BITMAP
0000
0000
0100
0300
0700
1F00
7F00
1F00
0700
0300
0100
0000
0000
0000
ENDCHAR
STARTCHAR 18
ENCODING 18
SWIDTH    9000    0
DWIDTH    9    0
BBX  9  14  0   -3
BITMAP
0000
0000
1800
3C00
7E00
1800
1800
1800
7E00
3C00
1800
0000
0000
0000
ENDCHAR
STARTCHAR 19
ENCODING 19
SWIDTH    9000    0
DWIDTH    9    0
BBX  9  14  0   -3
BITMAP
0000
0000
6600
6600
6600
6600
6600
6600
0000
6600
6600
0000
0000
0000
ENDCHAR
STARTCHAR 20
ENCODING 20
SWIDTH    9000    0
DWIDTH    9    0
BBX  9  14  0   -3
BITMAP
0000
3F80
6D80
6D80
6D80
6D80
3D80
0D80
0D80
0D80
0D80
0D80
0000
0000
ENDCHAR
STARTCHAR 21
ENCODING 21
SWIDTH    9000    0
DWIDTH    9    0
BBX  9  14  0   -3
BITMAP
0000
7C00
C600
6000
3800
6C00
C600
C600
6C00
3800
0C00
C600
7C00
0000
ENDCHAR
STARTCHAR 22
ENCODING 22
SWIDTH    9000    0
DWIDTH    9    0
BBX  9  14  0   -3
BITMAP
0000
0000
0000
0000
0000
0000
0000
0000
0000
FE00
FE00
FE00
FE00
0000
ENDCHAR
STARTCHAR 23
ENCODING 23
SWIDTH    9000    0
DWIDTH    9    0
BBX  9  14  0   -3
BITMAP
0000
0000
1800
3C00
7E00
1800
1800
1800
7E00
3C00
1800
7E00
0000
0000
ENDCHAR
STARTCHAR 24
ENCODING 24
SWIDTH    9000    0
DWIDTH    9    0
BBX  9  14  0   -3
BITMAP
0000
0000
1800
3C00
7E00
1800
1800
1800
1800
1800
1800
0000
0000
0000
ENDCHAR
STARTCHAR 25
ENCODING 25
SWIDTH    9000    0
DWIDTH    9    0
BBX  9  14  0   -3
BITMAP
0000
0000
1800
1800
1800
1800
1800
1800
7E00
3C00
1800
0000
0000
0000
ENDCHAR
STARTCHAR 26
ENCODING 26
SWIDTH    9000    0
DWIDTH    9    0
BBX  9  14  0   -3
BITMAP
0000
0000
0000
0800
0C00
7E00
7F00
7E00
0C00
0800
0000
0000
0000
0000
ENDCHAR
STARTCHAR 27
ENCODING 27
SWIDTH    9000    0
DWIDTH    9    0
BBX  9  14  0   -3
BITMAP
0000
0000
0000
0800
1800
3F00
7F00
3F00
1800
0800
0000
0000
0000
0000
ENDCHAR
STARTCHAR 28
ENCODING 28
SWIDTH    9000    0
DWIDTH    9    0
BBX  9  14  0   -3
BITMAP
0000
0000
0000
0000
0000
6000
6000
6000
7F00
0000
0000
0000
0000
0000
ENDCHAR
STARTCHAR 29
ENCODING 29
SWIDTH    9000    0
DWIDTH    9    0
BBX  9  14  0   -3
BITMAP
0000
0000
0000
0000
2800
6C00
FE00
6C00
2800
0000
0000
0000
0000
0000
ENDCHAR
STARTCHAR 30
ENCODING 30
SWIDTH    9000    0
DWIDTH    9    0
BBX  9  14  0   -3
BITMAP
0000
0000
1000
1000
1000
1000
3800
3800
3800
7C00
7C00
7C00
FE00
FE00
ENDCHAR
STARTCHAR 31
ENCODING 31
SWIDTH    9000    0
DWIDTH    9    0
BBX  9  14  0   -3
BITMAP
FE00
FE00
7C00
7C00
7C00
3800
3800
3800
1000
1000
1000
1000
0000
0000
ENDCHAR
STARTCHAR 32
ENCODING 32
SWIDTH    9000    0
DWIDTH    9    0
BBX  9  14  0   -3
BITMAP
0000
0000
0000
0000
0000
0000
0000
0000
0000
0000
0000
0000
0000
0000
ENDCHAR
STARTCHAR 33
ENCODING 33
SWIDTH    9000    0
DWIDTH    9    0
BBX  9  14  0   -3
BITMAP
0000
0000
1000
1000
1000
1000
1000
1000
0000
1000
1000
0000
0000
0000
ENDCHAR
STARTCHAR 34
ENCODING 34
SWIDTH    9000    0
DWIDTH    9    0
BBX  9  14  0   -3
BITMAP
0000
0000
2400
2400
2400
0000
0000
0000
0000
0000
0000
0000
0000
0000
ENDCHAR
STARTCHAR 35
ENCODING 35
SWIDTH    9000    0
DWIDTH    9    0
BBX  9  14  0   -3
BITMAP
0000
0000
0900
0900
3F80
1200
1200
1200
7F00
2400
2400
0000
0000
0000
ENDCHAR
STARTCHAR 36
ENCODING 36
SWIDTH    9000    0
DWIDTH    9    0
BBX  9  14  0   -3
BITMAP
0000
0800
1C00
2200
2000
2000
1C00
0200
0200
2200
1C00
0800
0000
0000
ENDCHAR
STARTCHAR 37
ENCODING 37
SWIDTH    9000    0
DWIDTH    9    0
BBX  9  14  0   -3
BITMAP
0000
0000
2000
5000
2200
0400
0800
1000
2400
4A00
0400
0000
0000
0000
ENDCHAR
STARTCHAR 38
ENCODING 38
SWIDTH    9000    0
DWIDTH    9    0
BBX  9  14  0   -3
BITMAP
0000
0000
3000
4800
4800
3000
3000
4A00
4400
4400
3B00
0000
0000
0000
ENDCHAR
STARTCHAR 39
ENCODING 39
SWIDTH    9000    0
DWIDTH    9    0
BBX  9  14  0   -3
BITMAP
0000
0000
0800
0800
0800
0000
0000
0000
0000
0000
0000
0000
0000
0000
ENDCHAR
STARTCHAR 40
ENCODING 40
SWIDTH    9000    0
DWIDTH    9    0
BBX  9  14  0   -3
BITMAP
0000
0400
0800
1000
1000
1000
1000
1000
1000
1000
0800
0400
0000
0000
ENDCHAR
STARTCHAR 41
ENCODING 41
SWIDTH    9000    0
DWIDTH    9    0
BBX  9  14  0   -3
BITMAP
0000
2000
1000
0800
0800
0800
0800
0800
0800
0800
1000
2000
0000
0000
ENDCHAR
STARTCHAR 42
ENCODING 42
SWIDTH    9000    0
DWIDTH    9    0
BBX  9  14  0   -3
BITMAP
0000
0000
0000
0000
2400
1800
7E00
1800
2400
0000
0000
0000
0000
0000
ENDCHAR
STARTCHAR 43
ENCODING 43
SWIDTH    9000    0
DWIDTH    9    0
BBX  9  14  0   -3
BITMAP
0000
0000
0000
0000
0800
0800
3E00
0800
0800
0000
0000
0000
0000
0000
ENDCHAR
STARTCHAR 44
ENCODING 44
SWIDTH    9000    0
DWIDTH    9    0
BBX  9  14  0   -3
BITMAP
0000
0000
0000
0000
0000
0000
0000
0000
0000
0800
0800
0800
0000
0000
ENDCHAR
STARTCHAR 45
ENCODING 45
SWIDTH    9000    0
DWIDTH    9    0
BBX  9  14  0   -3
BITMAP
0000
0000
0000
0000
0000
0000
7E00
0000
0000
0000
0000
0000
0000
0000
ENDCHAR
STARTCHAR 46
ENCODING 46
SWIDTH    9000    0
DWIDTH    9    0
BBX  9  14  0   -3
BITMAP
0000
0000
0000
0000
0000
0000
0000
0000
0000
0800
0800
0000
0000
0000
ENDCHAR
STARTCHAR 47
ENCODING 47
SWIDTH    9000    0
DWIDTH    9    0
BBX  9  14  0   -3
BITMAP
0000
0000
0200
0400
0400
0800
0800
1000
1000
2000
2000
4000
0000
0000
ENDCHAR
STARTCHAR 48
ENCODING 48
SWIDTH    9000    0
DWIDTH    9    0
BBX  9  14  0   -3
BITMAP
0000
0000
3C00
4200
4200
4200
5A00
4200
4200
4200
3C00
0000
0000
0000
ENDCHAR
STARTCHAR 49
ENCODING 49
SWIDTH    9000    0
DWIDTH    9    0
BBX  9  14  0   -3
BITMAP
0000
0000
3800
0800
0800
0800
0800
0800
0800
0800
3E00
0000
0000
0000
ENDCHAR
STARTCHAR 50
ENCODING 50
SWIDTH    9000    0
DWIDTH    9    0
BBX  9  14  0   -3
BITMAP
0000
0000
3C00
4200
0200
0200
0400
0800
1000
2000
7E00
0000
0000
0000
ENDCHAR
STARTCHAR 51
ENCODING 51
SWIDTH    9000    0
DWIDTH    9    0
BBX  9  14  0   -3
BITMAP
0000
0000
3C00
4200
0200
0200
1C00
0200
0200
4200
3C00
0000
0000
0000
ENDCHAR
STARTCHAR 52
ENCODING 52
SWIDTH    9000    0
DWIDTH    9    0
BBX  9  14  0   -3
BITMAP
0000
0000
0400
0C00
1400
2400
4400
7F00
0400
0400
0400
0000
0000
0000
ENDCHAR
STARTCHAR 53
ENCODING 53
SWIDTH    9000    0
DWIDTH    9    0
BBX  9  14  0   -3
BITMAP
0000
0000
7E00
4000
4000
7C00
0200
0200
0200
4200
3C00
0000
0000
0000
ENDCHAR
STARTCHAR 54
ENCODING 54
SWIDTH    9000    0
DWIDTH    9    0
BBX  9  14  0   -3
BITMAP
0000
0000
1C00
2000
4000
4000
7C00
4200
4200
4200
3C00
0000
0000
0000
ENDCHAR
STARTCHAR 55
ENCODING 55
SWIDTH    9000    0
DWIDTH    9    0
BBX  9  14  0   -3
BITMAP
0000
0000
7E00
0200
0200
0400
0400
0800
0800
1000
1000
0000
0000
0000
ENDCHAR
STARTCHAR 56
ENCODING 56
SWIDTH    9000    0
DWIDTH    9    0
BBX  9  14  0   -3
BITMAP
0000
0000
3C00
4200
4200
4200
3C00
4200
4200
4200
3C00
0000
0000
0000
ENDCHAR
STARTCHAR 57
ENCODING 57
SWIDTH    9000    0
DWIDTH    9    0
BBX  9  14  0   -3
BITMAP
0000
0000
3C00
4200
4200
4200
3E00
0200
0200
4200
3C00
0000
0000
0000
ENDCHAR
STARTCHAR 58
ENCODING 58
SWIDTH    9000    0
DWIDTH    9    0
BBX  9  14  0   -3
BITMAP
0000
0000
0000
0000
0000
0800
0800
0000
0000
0800
0800
0000
0000
0000
ENDCHAR
STARTCHAR 59
ENCODING 59
SWIDTH    9000    0
DWIDTH    9    0
BBX  9  14  0   -3
BITMAP
0000
0000
0000
0000
0000
0800
0800
0000
0000
0800
0800
1000
0000
0000
ENDCHAR
STARTCHAR 60
ENCODING 60
SWIDTH    9000    0
DWIDTH    9    0
BBX  9  14  0   -3
BITMAP
0000
0000
0000
0000
0400
0800
1000
2000
1000
0800
0400
0000
0000
0000
ENDCHAR
STARTCHAR 61
ENCODING 61
SWIDTH    9000    0
DWIDTH    9    0
BBX  9  14  0   -3
BITMAP
0000
0000
0000
0000
0000
7E00
0000
7E00
0000
0000
0000
0000
0000
0000
ENDCHAR
STARTCHAR 62
ENCODING 62
SWIDTH    9000    0
DWIDTH    9    0
BBX  9  14  0   -3
BITMAP
0000
0000
0000
0000
2000
1000
0800
0400
0800
1000
2000
0000
0000
0000
ENDCHAR
STARTCHAR 63
ENCODING 63
SWIDTH    9000    0
DWIDTH    9    0
BBX  9  14  0   -3
BITMAP
0000
0000
1C00
2200
0200
0400
0800
0800
0000
0800
0800
0000
0000
0000
ENDCHAR
STARTCHAR 64
ENCODING 64
SWIDTH    9000    0
DWIDTH    9    0
BBX  9  14  0   -3
BITMAP
0000
0000
0000
3C00
4200
4E00
5200
5200
5200
4E00
4000
3E00
0000
0000
ENDCHAR
STARTCHAR 65
ENCODING 65
SWIDTH    9000    0
DWIDTH    9    0
BBX  9  14  0   -3
BITMAP
0000
0000
0800
1400
2200
4100
7F00
4100
4100
4100
4100
0000
0000
0000
ENDCHAR
STARTCHAR 66
ENCODING 66
SWIDTH    9000    0
DWIDTH    9    0
BBX  9  14  0   -3
BITMAP
0000
0000
7C00
4200
4200
4200
7C00
4200
4200
4200
7C00
0000
0000
0000
ENDCHAR
STARTCHAR 67
ENCODING 67
SWIDTH    9000    0
DWIDTH    9    0
BBX  9  14  0   -3
BITMAP
0000
0000
3C00
4200
4000
4000
4000
4000
4000
4200
3C00
0000
0000
0000
ENDCHAR
STARTCHAR 68
ENCODING 68
SWIDTH    9000    0
DWIDTH    9    0
BBX  9  14  0   -3
BITMAP
0000
0000
7800
4400
4200
4200
4200
4200
4200
4400
7800
0000
0000
0000
ENDCHAR
STARTCHAR 69
ENCODING 69
SWIDTH    9000    0
DWIDTH    9    0
BBX  9  14  0   -3
BITMAP
0000
0000
7E00
4000
4000
4000
7C00
4000
4000
4000
7E00
0000
0000
0000
ENDCHAR
STARTCHAR 70
ENCODING 70
SWIDTH    9000    0
DWIDTH    9    0
BBX  9  14  0   -3
BITMAP
0000
0000
7E00
4000
4000
4000
7C00
4000
4000
4000
4000
0000
0000
0000
ENDCHAR
STARTCHAR 71
ENCODING 71
SWIDTH    9000    0
DWIDTH    9    0
BBX  9  14  0   -3
BITMAP
0000
0000
3C00
4200
4000
4000
4E00
4200
4200
4200
3C00
0000
0000
0000
ENDCHAR
STARTCHAR 72
ENCODING 72
SWIDTH    9000    0
DWIDTH    9    0
BBX  9  14  0   -3
BITMAP
0000
0000
4200
4200
4200
4200
7E00
4200
4200
4200
4200
0000
0000
0000
ENDCHAR
STARTCHAR 73
ENCODING 73
SWIDTH    9000    0
DWIDTH    9    0
BBX  9  14  0   -3
BITMAP
0000
0000
3E00
0800
0800
0800
0800
0800
0800
0800
3E00
0000
0000
0000
ENDCHAR
STARTCHAR 74
ENCODING 74
SWIDTH    9000    0
DWIDTH    9    0
BBX  9  14  0   -3
BITMAP
0000
0000
0200
0200
0200
0200
0200
0200
4200
4200
3C00
0000
0000
0000
ENDCHAR
STARTCHAR 75
ENCODING 75
SWIDTH    9000    0
DWIDTH    9    0
BBX  9  14  0   -3
BITMAP
0000
0000
4200
4400
4800
5000
6000
5000
4800
4400
4200
0000
0000
0000
ENDCHAR
STARTCHAR 76
ENCODING 76
SWIDTH    9000    0
DWIDTH    9    0
BBX  9  14  0   -3
BITMAP
0000
0000
4000
4000
4000
4000
4000
4000
4000
4000
7E00
0000
0000
0000
ENDCHAR
STARTCHAR 77
ENCODING 77
SWIDTH    9000    0
DWIDTH    9    0
BBX  9  14  0   -3
BITMAP
0000
0000
4100
6300
5500
4900
4100
4100
4100
4100
4100
0000
0000
0000
ENDCHAR
STARTCHAR 78
ENCODING 78
SWIDTH    9000    0
DWIDTH    9    0
BBX  9  14  0   -3
BITMAP
0000
0000
4200
6200
5200
4A00
4600
4200
4200
4200
4200
0000
0000
0000
ENDCHAR
STARTCHAR 79
ENCODING 79
SWIDTH    9000    0
DWIDTH    9    0
BBX  9  14  0   -3
BITMAP
0000
0000
3C00
4200
4200
4200
4200
4200
4200
4200
3C00
0000
0000
0000
ENDCHAR
STARTCHAR 80
ENCODING 80
SWIDTH    9000    0
DWIDTH    9    0
BBX  9  14  0   -3
BITMAP
0000
0000
7C00
4200
4200
4200
7C00
4000
4000
4000
4000
0000
0000
0000
ENDCHAR
STARTCHAR 81
ENCODING 81
SWIDTH    9000    0
DWIDTH    9    0
BBX  9  14  0   -3
BITMAP
0000
0000
3C00
4200
4200
4200
4200
4200
4A00
4400
3A00
0000
0000
0000
ENDCHAR
STARTCHAR 82
ENCODING 82
SWIDTH    9000    0
DWIDTH    9    0
BBX  9  14  0   -3
BITMAP
0000
0000
7C00
4200
4200
4200
7C00
4200
4200
4200
4200
0000
0000
0000
ENDCHAR
STARTCHAR 83
ENCODING 83
SWIDTH    9000    0
DWIDTH    9    0
BBX  9  14  0   -3
BITMAP
0000
0000
3C00
4200
4000
4000
3C00
0200
0200
4200
3C00
0000
0000
0000
ENDCHAR
STARTCHAR 84
ENCODING 84
SWIDTH    9000    0
DWIDTH    9    0
BBX  9  14  0   -3
BITMAP
0000
0000
7F00
0800
0800
0800
0800
0800
0800
0800
0800
0000
0000
0000
ENDCHAR
STARTCHAR 85
ENCODING 85
SWIDTH    9000    0
DWIDTH    9    0
BBX  9  14  0   -3
BITMAP
0000
0000
4200
4200
4200
4200
4200
4200
4200
4200
3C00
0000
0000
0000
ENDCHAR
STARTCHAR 86
ENCODING 86
SWIDTH    9000    0
DWIDTH    9    0
BBX  9  14  0   -3
BITMAP
0000
0000
4100
4100
4100
4100
4100
4100
2200
1400
0800
0000
0000
0000
ENDCHAR
STARTCHAR 87
ENCODING 87
SWIDTH    9000    0
DWIDTH    9    0
BBX  9  14  0   -3
BITMAP
0000
0000
4100
4100
4100
4100
4100
4900
5500
6300
4100
0000
0000
0000
ENDCHAR
STARTCHAR 88
ENCODING 88
SWIDTH    9000    0
DWIDTH    9    0
BBX  9  14  0   -3
BITMAP
0000
0000
4100
4100
2200
1400
0800
1400
2200
4100
4100
0000
0000
0000
ENDCHAR
STARTCHAR 89
ENCODING 89
SWIDTH    9000    0
DWIDTH    9    0
BBX  9  14  0   -3
BITMAP
0000
0000
4100
4100
2200
1400
0800
0800
0800
0800
0800
0000
0000
0000
ENDCHAR
STARTCHAR 90
ENCODING 90
SWIDTH    9000    0
DWIDTH    9    0
BBX  9  14  0   -3
BITMAP
0000
0000
7F00
0100
0200
0400
0800
1000
2000
4000
7F00
0000
0000
0000
ENDCHAR
STARTCHAR 91
ENCODING 91
SWIDTH    9000    0
DWIDTH    9    0
BBX  9  14  0   -3
BITMAP
0000
1C00
1000
1000
1000
1000
1000
1000
1000
1000
1000
1C00
0000
0000
ENDCHAR
STARTCHAR 92
ENCODING 92
SWIDTH    9000    0
DWIDTH    9    0
BBX  9  14  0   -3
BITMAP
0000
0000
4000
2000
2000
1000
1000
0800
0800
0400
0400
0200
0000
0000
ENDCHAR
STARTCHAR 93
ENCODING 93
SWIDTH    9000    0
DWIDTH    9    0
BBX  9  14  0   -3
BITMAP
0000
3800
0800
0800
0800
0800
0800
0800
0800
0800
0800
3800
0000
0000
ENDCHAR
STARTCHAR 94
ENCODING 94
SWIDTH    9000    0
DWIDTH    9    0
BBX  9  14  0   -3
BITMAP
0000
0000
0000
0800
1400
2200
0000
0000
0000
0000
0000
0000
0000
0000
ENDCHAR
STARTCHAR 95
ENCODING 95
SWIDTH    9000    0
DWIDTH    9    0
BBX  9  14  0   -3
BITMAP
0000
0000
0000
0000
0000
0000
0000
0000
0000
0000
0000
FF80
0000
0000
ENDCHAR
STARTCHAR 96
ENCODING 96
SWIDTH    9000    0
DWIDTH    9    0
BBX  9  14  0   -3
BITMAP
0000
0000
1000
1000
1000
0000
0000
0000
0000
0000
0000
0000
0000
0000
ENDCHAR
STARTCHAR 97
ENCODING 97
SWIDTH    9000    0
DWIDTH    9    0
BBX  9  14  0   -3
BITMAP
0000
0000
0000
0000
0000
3C00
4200
3E00
4200
4200
3E00
0000
0000
0000
ENDCHAR
STARTCHAR 98
ENCODING 98
SWIDTH    9000    0
DWIDTH    9    0
BBX  9  14  0   -3
BITMAP
0000
0000
4000
4000
4000
7C00
4200
4200
4200
4200
7C00
0000
0000
0000
ENDCHAR
STARTCHAR 99
ENCODING 99
SWIDTH    9000    0
DWIDTH    9    0
BBX  9  14  0   -3
BITMAP
0000
0000
0000
0000
0000
3C00
4200
4000
4000
4200
3C00
0000
0000
0000
ENDCHAR
STARTCHAR 100
ENCODING 100
SWIDTH    9000    0
DWIDTH    9    0
BBX  9  14  0   -3
BITMAP
0000
0000
0200
0200
0200
3E00
4200
4200
4200
4200
3E00
0000
0000
0000
ENDCHAR
STARTCHAR 101
ENCODING 101
SWIDTH    9000    0
DWIDTH    9    0
BBX  9  14  0   -3
BITMAP
0000
0000
0000
0000
0000
3C00
4200
7E00
4000
4200
3C00
0000
0000
0000
ENDCHAR
STARTCHAR 102
ENCODING 102
SWIDTH    9000    0
DWIDTH    9    0
BBX  9  14  0   -3
BITMAP
0000
0000
0C00
1000
1000
7C00
1000
1000
1000
1000
1000
0000
0000
0000
ENDCHAR
STARTCHAR 103
ENCODING 103
SWIDTH    9000    0
DWIDTH    9    0
BBX  9  14  0   -3
BITMAP
0000
0000
0000
0000
0000
3E00
4200
4200
4200
4200
3E00
0200
4200
3C00
ENDCHAR
STARTCHAR 104
ENCODING 104
SWIDTH    9000    0
DWIDTH    9    0
BBX  9  14  0   -3
BITMAP
0000
0000
4000
4000
4000
7C00
4200
4200
4200
4200
4200
0000
0000
0000
ENDCHAR
STARTCHAR 105
ENCODING 105
SWIDTH    9000    0
DWIDTH    9    0
BBX  9  14  0   -3
BITMAP
0000
0000
0800
0800
0000
1800
0800
0800
0800
0800
1C00
0000
0000
0000
ENDCHAR
STARTCHAR 106
ENCODING 106
SWIDTH    9000    0
DWIDTH    9    0
BBX  9  14  0   -3
BITMAP
0000
0000
0400
0400
0000
0C00
0400
0400
0400
0400
0400
0400
0800
3000
ENDCHAR
STARTCHAR 107
ENCODING 107
SWIDTH    9000    0
DWIDTH    9    0
BBX  9  14  0   -3
BITMAP
0000
0000
4000
4000
4000
4800
5000
6000
5000
4800
4400
0000
0000
0000
ENDCHAR
STARTCHAR 108
ENCODING 108
SWIDTH    9000    0
DWIDTH    9    0
BBX  9  14  0   -3
BITMAP
0000
0000
1000
1000
1000
1000
1000
1000
1000
1000
0C00
0000
0000
0000
ENDCHAR
STARTCHAR 109
ENCODING 109
SWIDTH    9000    0
DWIDTH    9    0
BBX  9  14  0   -3
BITMAP
0000
0000
0000
0000
0000
7E00
4900
4900
4900
4900
4900
0000
0000
0000
ENDCHAR
STARTCHAR 110
ENCODING 110
SWIDTH    9000    0
DWIDTH    9    0
BBX  9  14  0   -3
BITMAP
0000
0000
0000
0000
0000
7C00
4200
4200
4200
4200
4200
0000
0000
0000
ENDCHAR
STARTCHAR 111
ENCODING 111
SWIDTH    9000    0
DWIDTH    9    0
BBX  9  14  0   -3
BITMAP
0000
0000
0000
0000
0000
3C00
4200
4200
4200
4200
3C00
0000
0000
0000
ENDCHAR
STARTCHAR 112
ENCODING 112
SWIDTH    9000    0
DWIDTH    9    0
BBX  9  14  0   -3
BITMAP
0000
0000
0000
0000
0000
7C00
4200
4200
4200
4200
7C00
4000
4000
4000
ENDCHAR
STARTCHAR 113
ENCODING 113
SWIDTH    9000    0
DWIDTH    9    0
BBX  9  14  0   -3
BITMAP
0000
0000
0000
0000
0000
3E00
4200
4200
4200
4200
3E00
0200
0200
0200
ENDCHAR
STARTCHAR 114
ENCODING 114
SWIDTH    9000    0
DWIDTH    9    0
BBX  9  14  0   -3
BITMAP
0000
0000
0000
0000
0000
3C00
2200
2000
2000
2000
2000
0000
0000
0000
ENDCHAR
STARTCHAR 115
ENCODING 115
SWIDTH    9000    0
DWIDTH    9    0
BBX  9  14  0   -3
BITMAP
0000
0000
0000
0000
0000
3C00
4200
3C00
0200
4200
3C00
0000
0000
0000
ENDCHAR
STARTCHAR 116
ENCODING 116
SWIDTH    9000    0
DWIDTH    9    0
BBX  9  14  0   -3
BITMAP
0000
0000
0000
1000
1000
7C00
1000
1000
1000
1000
0C00
0000
0000
0000
ENDCHAR
STARTCHAR 117
ENCODING 117
SWIDTH    9000    0
DWIDTH    9    0
BBX  9  14  0   -3
BITMAP
0000
0000
0000
0000
0000
4200
4200
4200
4200
4200
3E00
0000
0000
0000
ENDCHAR
STARTCHAR 118
ENCODING 118
SWIDTH    9000    0
DWIDTH    9    0
BBX  9  14  0   -3
BITMAP
0000
0000
0000
0000
0000
4100
4100
4100
2200
1400
0800
0000
0000
0000
ENDCHAR
STARTCHAR 119
ENCODING 119
SWIDTH    9000    0
DWIDTH    9    0
BBX  9  14  0   -3
BITMAP
0000
0000
0000
0000
0000
4100
4100
4900
5500
6300
4100
0000
0000
0000
ENDCHAR
STARTCHAR 120
ENCODING 120
SWIDTH    9000    0
DWIDTH    9    0
BBX  9  14  0   -3
BITMAP
0000
0000
0000
0000
0000
4200
2400
1800
1800
2400
4200
0000
0000
0000
ENDCHAR
STARTCHAR 121
ENCODING 121
SWIDTH    9000    0
DWIDTH    9    0
BBX  9  14  0   -3
BITMAP
0000
0000
0000
0000
0000
4200
4200
4200
4200
4200
3E00
0200
4200
3C00
ENDCHAR
STARTCHAR 122
ENCODING 122
SWIDTH    9000    0
DWIDTH    9    0
BBX  9  14  0   -3
BITMAP
0000
0000
0000
0000
0000
7E00
0400
0800
1000
2000
7E00
0000
0000
0000
ENDCHAR
STARTCHAR 123
ENCODING 123
SWIDTH    9000    0
DWIDTH    9    0
BBX  9  14  0   -3
BITMAP
0000
0600
0800
0800
0800
1000
2000
1000
0800
0800
0800
0600
0000
0000
ENDCHAR
STARTCHAR 124
ENCODING 124
SWIDTH    9000    0
DWIDTH    9    0
BBX  9  14  0   -3
BITMAP
0000
0800
0800
0800
0800
0800
0800
0800
0800
0800
0800
0800
0000
0000
ENDCHAR
STARTCHAR 125
ENCODING 125
SWIDTH    9000    0
DWIDTH    9    0
BBX  9  14  0   -3
BITMAP
0000
3000
0800
0800
0800
0400
0200
0400
0800
0800
0800
3000
0000
0000
ENDCHAR
STARTCHAR 126
ENCODING 126
SWIDTH    9000    0
DWIDTH    9    0
BBX  9  14  0   -3
BITMAP
0000
0000
0000
0000
0000
0000
3200
4C00
0000
0000
0000
0000
0000
0000
ENDCHAR
STARTCHAR 127
ENCODING 127
SWIDTH    9000    0
DWIDTH    9    0
BBX  9  14  0   -3
BITMAP
0000
0000
0000
0000
0800
1C00
3600
6300
6300
7F00
0000
0000
0000
0000
ENDCHAR
STARTCHAR 128
ENCODING 128
SWIDTH    9000    0
DWIDTH    9    0
BBX  9  14  0   -3
BITMAP
0000
0000
3C00
4200
4000
4000
4000
4000
4000
4200
3C00
0800
0400
3800
ENDCHAR
STARTCHAR 129
ENCODING 129
SWIDTH    9000    0
DWIDTH    9    0
BBX  9  14  0   -3
BITMAP
0000
0000
2400
0000
0000
4200
4200
4200
4200
4200
3E00
0000
0000
0000
ENDCHAR
STARTCHAR 130
ENCODING 130
SWIDTH    9000    0
DWIDTH    9    0
BBX  9  14  0   -3
BITMAP
0000
0000
0800
1000
0000
3C00
4200
7E00
4000
4200
3C00
0000
0000
0000
ENDCHAR
STARTCHAR 131
ENCODING 131
SWIDTH    9000    0
DWIDTH    9    0
BBX  9  14  0   -3
BITMAP
0000
0000
1800
2400
0000
3C00
4200
3E00
4200
4200
3E00
0000
0000
0000
ENDCHAR
STARTCHAR 132
ENCODING 132
SWIDTH    9000    0
DWIDTH    9    0
BBX  9  14  0   -3
BITMAP
0000
0000
2400
0000
0000
3C00
4200
3E00
4200
4200
3E00
0000
0000
0000
ENDCHAR
STARTCHAR 133
ENCODING 133
SWIDTH    9000    0
DWIDTH    9    0
BBX  9  14  0   -3
BITMAP
0000
0000
1000
0800
0000
3C00
4200
3E00
4200
4200
3E00
0000
0000
0000
ENDCHAR
STARTCHAR 134
ENCODING 134
SWIDTH    9000    0
DWIDTH    9    0
BBX  9  14  0   -3
BITMAP
0000
1800
2400
1800
0000
3C00
4200
3E00
4200
4200
3E00
0000
0000
0000
ENDCHAR
STARTCHAR 135
ENCODING 135
SWIDTH    9000    0
DWIDTH    9    0
BBX  9  14  0   -3
BITMAP
0000
0000
0000
0000
0000
3C00
4200
4000
4000
4200
3C00
0800
0400
1800
ENDCHAR
STARTCHAR 136
ENCODING 136
SWIDTH    9000    0
DWIDTH    9    0
BBX  9  14  0   -3
BITMAP
0000
0000
1800
2400
0000
3C00
4200
7E00
4000
4200
3C00
0000
0000
0000
ENDCHAR
STARTCHAR 137
ENCODING 137
SWIDTH    9000    0
DWIDTH    9    0
BBX  9  14  0   -3
BITMAP
0000
0000
2400
0000
0000
3C00
4200
7E00
4000
4200
3C00
0000
0000
0000
ENDCHAR
STARTCHAR 138
ENCODING 138
SWIDTH    9000    0
DWIDTH    9    0
BBX  9  14  0   -3
BITMAP
0000
0000
1000
0800
0000
3C00
4200
7E00
4000
4200
3C00
0000
0000
0000
ENDCHAR
STARTCHAR 139
ENCODING 139
SWIDTH    9000    0
DWIDTH    9    0
BBX  9  14  0   -3
BITMAP
0000
0000
2400
0000
0000
1800
0800
0800
0800
0800
1C00
0000
0000
0000
ENDCHAR
STARTCHAR 140
ENCODING 140
SWIDTH    9000    0
DWIDTH    9    0
BBX  9  14  0   -3
BITMAP
0000
0000
0800
1400
0000
1800
0800
0800
0800
0800
1C00
0000
0000
0000
ENDCHAR
STARTCHAR 141
ENCODING 141
SWIDTH    9000    0
DWIDTH    9    0
BBX  9  14  0   -3
BITMAP
0000
0000
1000
0800
0000
1800
0800
0800
0800
0800
1C00
0000
0000
0000
ENDCHAR
STARTCHAR 142
ENCODING 142
SWIDTH    9000    0
DWIDTH    9    0
BBX  9  14  0   -3
BITMAP
2200
0000
0800
1400
2200
4100
7F00
4100
4100
4100
4100
0000
0000
0000
ENDCHAR
STARTCHAR 143
ENCODING 143
SWIDTH    9000    0
DWIDTH    9    0
BBX  9  14  0   -3
BITMAP
0800
1400
0800
1400
2200
4100
7F00
4100
4100
4100
4100
0000
0000
0000
ENDCHAR
STARTCHAR 144
ENCODING 144
SWIDTH    9000    0
DWIDTH    9    0
BBX  9  14  0   -3
BITMAP
0800
1000
7E00
4000
4000
4000
7C00
4000
4000
4000
7E00
0000
0000
0000
ENDCHAR
STARTCHAR 145
ENCODING 145
SWIDTH    9000    0
DWIDTH    9    0
BBX  9  14  0   -3
BITMAP
0000
0000
0000
0000
0000
3E00
4900
3F00
4800
4900
3E00
0000
0000
0000
ENDCHAR
STARTCHAR 146
ENCODING 146
SWIDTH    9000    0
DWIDTH    9    0
BBX  9  14  0   -3
BITMAP
0000
0000
0F80
1400
2400
4400
7F80
4400
4400
4400
4780
0000
0000
0000
ENDCHAR
STARTCHAR 147
ENCODING 147
SWIDTH    9000    0
DWIDTH    9    0
BBX  9  14  0   -3
BITMAP
0000
0000
1800
2400
0000
3C00
4200
4200
4200
4200
3C00
0000
0000
0000
ENDCHAR
STARTCHAR 148
ENCODING 148
SWIDTH    9000    0
DWIDTH    9    0
BBX  9  14  0   -3
BITMAP
0000
0000
2400
0000
0000
3C00
4200
4200
4200
4200
3C00
0000
0000
0000
ENDCHAR
STARTCHAR 149
ENCODING 149
SWIDTH    9000    0
DWIDTH    9    0
BBX  9  14  0   -3
BITMAP
0000
0000
1000
0800
0000
3C00
4200
4200
4200
4200
3C00
0000
0000
0000
ENDCHAR
STARTCHAR 150
ENCODING 150
SWIDTH    9000    0
DWIDTH    9    0
BBX  9  14  0   -3
BITMAP
0000
1800
2400
0000
0000
4200
4200
4200
4200
4200
3E00
0000
0000
0000
ENDCHAR
STARTCHAR 151
ENCODING 151
SWIDTH    9000    0
DWIDTH    9    0
BBX  9  14  0   -3
BITMAP
0000
0000
1000
0800
0000
4200
4200
4200
4200
4200
3E00
0000
0000
0000
ENDCHAR
STARTCHAR 152
ENCODING 152
SWIDTH    9000    0
DWIDTH    9    0
BBX  9  14  0   -3
BITMAP
0000
0000
2200
0000
0000
4200
4200
4200
4200
4200
3E00
0200
4200
3C00
ENDCHAR
STARTCHAR 153
ENCODING 153
SWIDTH    9000    0
DWIDTH    9    0
BBX  9  14  0   -3
BITMAP
2400
0000
3C00
4200
4200
4200
4200
4200
4200
4200
3C00
0000
0000
0000
ENDCHAR
STARTCHAR 154
ENCODING 154
SWIDTH    9000    0
DWIDTH    9    0
BBX  9  14  0   -3
BITMAP
2400
0000
4200
4200
4200
4200
4200
4200
4200
4200
3C00
0000
0000
0000
ENDCHAR
STARTCHAR 155
ENCODING 155
SWIDTH    9000    0
DWIDTH    9    0
BBX  9  14  0   -3
BITMAP
0000
0000
0000
0000
0800
1C00
2200
4000
4000
2200
1C00
0800
0000
0000
ENDCHAR
STARTCHAR 156
ENCODING 156
SWIDTH    9000    0
DWIDTH    9    0
BBX  9  14  0   -3
BITMAP
0000
0000
1C00
2200
2000
2000
7800
2000
2000
3200
4C00
0000
0000
0000
ENDCHAR
STARTCHAR 157
ENCODING 157
SWIDTH    9000    0
DWIDTH    9    0
BBX  9  14  0   -3
BITMAP
0000
0000
4100
4100
2200
1400
7F00
0800
7F00
0800
0800
0000
0000
0000
ENDCHAR
STARTCHAR 158
ENCODING 158
SWIDTH    9000    0
DWIDTH    9    0
BBX  9  14  0   -3
BITMAP
0000
0000
7800
4400
4400
7800
4400
4E00
4400
4400
4400
0000
0000
0000
ENDCHAR
STARTCHAR 159
ENCODING 159
SWIDTH    9000    0
DWIDTH    9    0
BBX  9  14  0   -3
BITMAP
0000
0000
0C00
1000
1000
1000
7C00
1000
1000
1000
1000
6000
0000
0000
ENDCHAR
STARTCHAR 160
ENCODING 160
SWIDTH    9000    0
DWIDTH    9    0
BBX  9  14  0   -3
BITMAP
0000
0000
0400
0800
0000
3C00
4200
3E00
4200
4200
3E00
0000
0000
0000
ENDCHAR
STARTCHAR 161
ENCODING 161
SWIDTH    9000    0
DWIDTH    9    0
BBX  9  14  0   -3
BITMAP
0000
0000
0800
1000
0000
1800
0800
0800
0800
0800
1C00
0000
0000
0000
ENDCHAR
STARTCHAR 162
ENCODING 162
SWIDTH    9000    0
DWIDTH    9    0
BBX  9  14  0   -3
BITMAP
0000
0000
0800
1000
0000
3C00
4200
4200
4200
4200
3C00
0000
0000
0000
ENDCHAR
STARTCHAR 163
ENCODING 163
SWIDTH    9000    0
DWIDTH    9    0
BBX  9  14  0   -3
BITMAP
0000
0000
0400
0800
0000
4200
4200
4200
4200
4200
3E00
0000
0000
0000
ENDCHAR
STARTCHAR 164
ENCODING 164
SWIDTH    9000    0
DWIDTH    9    0
BBX  9  14  0   -3
BITMAP
0000
0000
3200
4C00
0000
7C00
4200
4200
4200
4200
4200
0000
0000
0000
ENDCHAR
STARTCHAR 165
ENCODING 165
SWIDTH    9000    0
DWIDTH    9    0
BBX  9  14  0   -3
BITMAP
3200
4C00
4200
6200
5200
4A00
4600
4200
4200
4200
4200
0000
0000
0000
ENDCHAR
STARTCHAR 166
ENCODING 166
SWIDTH    9000    0
DWIDTH    9    0
BBX  9  14  0   -3
BITMAP
0000
3800
4400
3C00
4400
3C00
0000
7E00
0000
0000
0000
0000
0000
0000
ENDCHAR
STARTCHAR 167
ENCODING 167
SWIDTH    9000    0
DWIDTH    9    0
BBX  9  14  0   -3
BITMAP
0000
1C00
2200
2200
2200
1C00
0000
3E00
0000
0000
0000
0000
0000
0000
ENDCHAR
STARTCHAR 168
ENCODING 168
SWIDTH    9000    0
DWIDTH    9    0
BBX  9  14  0   -3
BITMAP
0000
0000
0800
0800
0000
0800
1000
2000
2000
2200
1C00
0000
0000
0000
ENDCHAR
STARTCHAR 169
ENCODING 169
SWIDTH    9000    0
DWIDTH    9    0
BBX  9  14  0   -3
BITMAP
0000
0000
0000
0000
0000
3E00
2000
2000
2000
0000
0000
0000
0000
0000
ENDCHAR
STARTCHAR 170
ENCODING 170
SWIDTH    9000    0
DWIDTH    9    0
BBX  9  14  0   -3
BITMAP
0000
0000
0000
0000
0000
7C00
0400
0400
0400
0000
0000
0000
0000
0000
ENDCHAR
STARTCHAR 171
ENCODING 171
SWIDTH    9000    0
DWIDTH    9    0
BBX  9  14  0   -3
BITMAP
0000
0000
0000
2080
6100
2200
2400
2A00
1500
2200
4700
0000
0000
0000
ENDCHAR
STARTCHAR 172
ENCODING 172
SWIDTH    9000    0
DWIDTH    9    0
BBX  9  14  0   -3
BITMAP
0000
0000
0000
2080
6100
2200
2500
2B00
1500
2F00
4100
0000
0000
0000
ENDCHAR
STARTCHAR 173
ENCODING 173
SWIDTH    9000    0
DWIDTH    9    0
BBX  9  14  0   -3
BITMAP
0000
0000
1000
1000
0000
1000
1000
1000
1000
1000
1000
0000
0000
0000
ENDCHAR
STARTCHAR 174
ENCODING 174
SWIDTH    9000    0
DWIDTH    9    0
BBX  9  14  0   -3
BITMAP
0000
0000
0000
0000
0000
1200
2400
4800
2400
1200
0000
0000
0000
0000
ENDCHAR
STARTCHAR 175
ENCODING 175
SWIDTH    9000    0
DWIDTH    9    0
BBX  9  14  0   -3
BITMAP
0000
0000
0000
0000
0000
2400
1200
0900
1200
2400
0000
0000
0000
0000
ENDCHAR
STARTCHAR 176
ENCODING 176
SWIDTH    9000    0
DWIDTH    9    0
BBX  9  14  0   -3
BITMAP
0000
7F00
4100
4100
4100
4100
4100
4100
4100
4100
4100
7F00
0000
0000
ENDCHAR
STARTCHAR 177
ENCODING 177
SWIDTH    9000    0
DWIDTH    9    0
BBX  9  14  0   -3
BITMAP
0000
7F00
4100
4100
4100
4100
4100
4100
4100
4100
4100
7F00
0000
0000
ENDCHAR
STARTCHAR 178
ENCODING 178
SWIDTH    9000    0
DWIDTH    9    0
BBX  9  14  0   -3
BITMAP
0000
7F00
4100
4100
4100
4100
4100
4100
4100
4100
4100
7F00
0000
0000
ENDCHAR
STARTCHAR 179
ENCODING 179
SWIDTH    9000    0
DWIDTH    9    0
BBX  9  14  0   -3
BITMAP
0000
7F00
4100
4100
4100
4100
4100
4100
4100
4100
4100
7F00
0000
0000
ENDCHAR
STARTCHAR 180
ENCODING 180
SWIDTH    9000    0
DWIDTH    9    0
BBX  9  14  0   -3
BITMAP
0000
7F00
4100
4100
4100
4100
4100
4100
4100
4100
4100
7F00
0000
0000
ENDCHAR
STARTCHAR 181
ENCODING 181
SWIDTH    9000    0
DWIDTH    9    0
BBX  9  14  0   -3
BITMAP
0000
7F00
4100
4100
4100
4100
4100
4100
4100
4100
4100
7F00
0000
0000
ENDCHAR
STARTCHAR 182
ENCODING 182
SWIDTH    9000    0
DWIDTH    9    0
BBX  9  14  0   -3
BITMAP
0000
7F00
4100
4100
4100
4100
4100
4100
4100
4100
4100
7F00
0000
0000
ENDCHAR
STARTCHAR 183
ENCODING 183
SWIDTH    9000    0
DWIDTH    9    0
BBX  9  14  0   -3
BITMAP
0000
7F00
4100
4100
4100
4100
4100
4100
4100
4100
4100
7F00
0000
0000
ENDCHAR
STARTCHAR 184
ENCODING 184
SWIDTH    9000    0
DWIDTH    9    0
BBX  9  14  0   -3
BITMAP
0000
7F00
4100
4100
4100
4100
4100
4100
4100
4100
4100
7F00
0000
0000
ENDCHAR
STARTCHAR 185
ENCODING 185
SWIDTH    9000    0
DWIDTH    9    0
BBX  9  14  0   -3
BITMAP
0000
7F00
4100
4100
4100
4100
4100
4100
4100
4100
4100
7F00
0000
0000
ENDCHAR
STARTCHAR 186
ENCODING 186
SWIDTH    9000    0
DWIDTH    9    0
BBX  9  14  0   -3
BITMAP
0000
7F00
4100
4100
4100
4100
4100
4100
4100
4100
4100
7F00
0000
0000
ENDCHAR
STARTCHAR 187
ENCODING 187
SWIDTH    9000    0
DWIDTH    9    0
BBX  9  14  0   -3
BITMAP
0000
7F00
4100
4100
4100
4100
4100
4100
4100
4100
4100
7F00
0000
0000
ENDCHAR
STARTCHAR 188
ENCODING 188
SWIDTH    9000    0
DWIDTH    9    0
BBX  9  14  0   -3
BITMAP
0000
7F00
4100
4100
4100
4100
4100
4100
4100
4100
4100
7F00
0000
0000
ENDCHAR
STARTCHAR 189
ENCODING 189
SWIDTH    9000    0
DWIDTH    9    0
BBX  9  14  0   -3
BITMAP
0000
7F00
4100
4100
4100
4100
4100
4100
4100
4100
4100
7F00
0000
0000
ENDCHAR
STARTCHAR 190
ENCODING 190
SWIDTH    9000    0
DWIDTH    9    0
BBX  9  14  0   -3
BITMAP
0000
7F00
4100
4100
4100
4100
4100
4100
4100
4100
4100
7F00
0000
0000
ENDCHAR
STARTCHAR 191
ENCODING 191
SWIDTH    9000    0
DWIDTH    9    0
BBX  9  14  0   -3
BITMAP
0000
7F00
4100
4100
4100
4100
4100
4100
4100
4100
4100
7F00
0000
0000
ENDCHAR
STARTCHAR 192
ENCODING 192
SWIDTH    9000    0
DWIDTH    9    0
BBX  9  14  0   -3
BITMAP
0000
7F00
4100
4100
4100
4100
4100
4100
4100
4100
4100
7F00
0000
0000
ENDCHAR
STARTCHAR 193
ENCODING 193
SWIDTH    9000    0
DWIDTH    9    0
BBX  9  14  0   -3
BITMAP
0000
7F00
4100
4100
4100
4100
4100
4100
4100
4100
4100
7F00
0000
0000
ENDCHAR
STARTCHAR 194
ENCODING 194
SWIDTH    9000    0
DWIDTH    9    0
BBX  9  14  0   -3
BITMAP
0000
7F00
4100
4100
4100
4100
4100
4100
4100
4100
4100
7F00
0000
0000
ENDCHAR
STARTCHAR 195
ENCODING 195
SWIDTH    9000    0
DWIDTH    9    0
BBX  9  14  0   -3
BITMAP
0000
7F00
4100
4100
4100
4100
4100
4100
4100
4100
4100
7F00
0000
0000
ENDCHAR
STARTCHAR 196
ENCODING 196
SWIDTH    9000    0
DWIDTH    9    0
BBX  9  14  0   -3
BITMAP
0000
7F00
4100
4100
4100
4100
4100
4100
4100
4100
4100
7F00
0000
0000
ENDCHAR
STARTCHAR 197
ENCODING 197
SWIDTH    9000    0
DWIDTH    9    0
BBX  9  14  0   -3
BITMAP
0000
7F00
4100
4100
4100
4100
4100
4100
4100
4100
4100
7F00
0000
0000
ENDCHAR
STARTCHAR 198
ENCODING 198
SWIDTH    9000    0
DWIDTH    9    0
BBX  9  14  0   -3
BITMAP
0000
7F00
4100
4100
4100
4100
4100
4100
4100
4100
4100
7F00
0000
0000
ENDCHAR
STARTCHAR 199
ENCODING 199
SWIDTH    9000    0
DWIDTH    9    0
BBX  9  14  0   -3
BITMAP
0000
7F00
4100
4100
4100
4100
4100
4100
4100
4100
4100
7F00
0000
0000
ENDCHAR
STARTCHAR 200
ENCODING 200
SWIDTH    9000    0
DWIDTH    9    0
BBX  9  14  0   -3
BITMAP
0000
7F00
4100
4100
4100
4100
4100
4100
4100
4100
4100
7F00
0000
0000
ENDCHAR
STARTCHAR 201
ENCODING 201
SWIDTH    9000    0
DWIDTH    9    0
BBX  9  14  0   -3
BITMAP
0000
7F00
4100
4100
4100
4100
4100
4100
4100
4100
4100
7F00
0000
0000
ENDCHAR
STARTCHAR 202
ENCODING 202
SWIDTH    9000    0
DWIDTH    9    0
BBX  9  14  0   -3
BITMAP
0000
7F00
4100
4100
4100
4100
4100
4100
4100
4100
4100
7F00
0000
0000
ENDCHAR
STARTCHAR 203
ENCODING 203
SWIDTH    9000    0
DWIDTH    9    0
BBX  9  14  0   -3
BITMAP
0000
7F00
4100
4100
4100
4100
4100
4100
4100
4100
4100
7F00
0000
0000
ENDCHAR
STARTCHAR 204
ENCODING 204
SWIDTH    9000    0
DWIDTH    9    0
BBX  9  14  0   -3
BITMAP
0000
7F00
4100
4100
4100
4100
4100
4100
4100
4100
4100
7F00
0000
0000
ENDCHAR
STARTCHAR 205
ENCODING 205
SWIDTH    9000    0
DWIDTH    9    0
BBX  9  14  0   -3
BITMAP
0000
7F00
4100
4100
4100
4100
4100
4100
4100
4100
4100
7F00
0000
0000
ENDCHAR
STARTCHAR 206
ENCODING 206
SWIDTH    9000    0
DWIDTH    9    0
BBX  9  14  0   -3
BITMAP
0000
7F00
4100
4100
4100
4100
4100
4100
4100
4100
4100
7F00
0000
0000
ENDCHAR
STARTCHAR 207
ENCODING 207
SWIDTH    9000    0
DWIDTH    9    0
BBX  9  14  0   -3
BITMAP
0000
7F00
4100
4100
4100
4100
4100
4100
4100
4100
4100
7F00
0000
0000
ENDCHAR
STARTCHAR 208
ENCODING 208
SWIDTH    9000    0
DWIDTH    9    0
BBX  9  14  0   -3
BITMAP
0000
7F00
4100
4100
4100
4100
4100
4100
4100
4100
4100
7F00
0000
0000
ENDCHAR
STARTCHAR 209
ENCODING 209
SWIDTH    9000    0
DWIDTH    9    0
BBX  9  14  0   -3
BITMAP
0000
7F00
4100
4100
4100
4100
4100
4100
4100
4100
4100
7F00
0000
0000
ENDCHAR
STARTCHAR 210
ENCODING 210
SWIDTH    9000    0
DWIDTH    9    0
BBX  9  14  0   -3
BITMAP
0000
7F00
4100
4100
4100
4100
4100
4100
4100
4100
4100
7F00
0000
0000
ENDCHAR
STARTCHAR 211
ENCODING 211
SWIDTH    9000    0
DWIDTH    9    0
BBX  9  14  0   -3
BITMAP
0000
7F00
4100
4100
4100
4100
4100
4100
4100
4100
4100
7F00
0000
0000
ENDCHAR
STARTCHAR 212
ENCODING 212
SWIDTH    9000    0
DWIDTH    9    0
BBX  9  14  0   -3
BITMAP
0000
7F00
4100
4100
4100
4100
4100
4100
4100
4100
4100
7F00
0000
0000
ENDCHAR
STARTCHAR 213
ENCODING 213
SWIDTH    9000    0
DWIDTH    9    0
BBX  9  14  0   -3
BITMAP
0000
7F00
4100
4100
4100
4100
4100
4100
4100
4100
4100
7F00
0000
0000
ENDCHAR
STARTCHAR 214
ENCODING 214
SWIDTH    9000    0
DWIDTH    9    0
BBX  9  14  0   -3
BITMAP
0000
7F00
4100
4100
4100
4100
4100
4100
4100
4100
4100
7F00
0000
0000
ENDCHAR
STARTCHAR 215
ENCODING 215
SWIDTH    9000    0
DWIDTH    9    0
BBX  9  14  0   -3
BITMAP
0000
7F00
4100
4100
4100
4100
4100
4100
4100
4100
4100
7F00
0000
0000
ENDCHAR
STARTCHAR 216
ENCODING 216
SWIDTH    9000    0
DWIDTH    9    0
BBX  9  14  0   -3
BITMAP
0000
7F00
4100
4100
4100
4100
4100
4100
4100
4100
4100
7F00
0000
0000
ENDCHAR
STARTCHAR 217
ENCODING 217
SWIDTH    9000    0
DWIDTH    9    0
BBX  9  14  0   -3
BITMAP
0000
7F00
4100
4100
4100
4100
4100
4100
4100
4100
4100
7F00
0000
0000
ENDCHAR
STARTCHAR 218
ENCODING 218
SWIDTH    9000    0
DWIDTH    9    0
BBX  9  14  0   -3
BITMAP
0000
7F00
4100
4100
4100
4100
4100
4100
4100
4100
4100
7F00
0000
0000
ENDCHAR
STARTCHAR 219
ENCODING 219
SWIDTH    9000    0
DWIDTH    9    0
BBX  9  14  0   -3
BITMAP
0000
7F00
4100
4100
4100
4100
4100
4100
4100
4100
4100
7F00
0000
0000
ENDCHAR
STARTCHAR 220
ENCODING 220
SWIDTH    9000    0
DWIDTH    9    0
BBX  9  14  0   -3
BITMAP
0000
7F00
4100
4100
4100
4100
4100
4100
4100
4100
4100
7F00
0000
0000
ENDCHAR
STARTCHAR 221
ENCODING 221
SWIDTH    9000    0
DWIDTH    9    0
BBX  9  14  0   -3
BITMAP
0000
7F00
4100
4100
4100
4100
4100
4100
4100
4100
4100
7F00
0000
0000
ENDCHAR
STARTCHAR 222
ENCODING 222
SWIDTH    9000    0
DWIDTH    9    0
BBX  9  14  0   -3
BITMAP
0000
7F00
4100
4100
4100
4100
4100
4100
4100
4100
4100
7F00
0000
0000
ENDCHAR
STARTCHAR 223
ENCODING 223
SWIDTH    9000    0
DWIDTH    9    0
BBX  9  14  0   -3
BITMAP
0000
7F00
4100
4100
4100
4100
4100
4100
4100
4100
4100
7F00
0000
0000
ENDCHAR
STARTCHAR 224
ENCODING 224
SWIDTH    9000    0
DWIDTH    9    0
BBX  9  14  0   -3
BITMAP
0000
0000
0000
0000
0000
3100
4A00
4400
4400
4A00
3100
0000
0000
0000
ENDCHAR
STARTCHAR 225
ENCODING 225
SWIDTH    9000    0
DWIDTH    9    0
BBX  9  14  0   -3
BITMAP
0000
0000
7800
4400
4400
4400
4800
4400
4200
5200
4C00
0000
0000
0000
ENDCHAR
STARTCHAR 226
ENCODING 226
SWIDTH    9000    0
DWIDTH    9    0
BBX  9  14  0   -3
BITMAP
0000
0000
7E00
4200
4000
4000
4000
4000
4000
4000
4000
0000
0000
0000
ENDCHAR
STARTCHAR 227
ENCODING 227
SWIDTH    9000    0
DWIDTH    9    0
BBX  9  14  0   -3
BITMAP
0000
0000
0000
0000
7E00
2400
2400
2400
2400
4400
0000
0000
0000
0000
ENDCHAR
STARTCHAR 228
ENCODING 228
SWIDTH    9000    0
DWIDTH    9    0
BBX  9  14  0   -3
BITMAP
0000
0000
7E00
2200
1000
0800
0400
0800
1000
2200
7E00
0000
0000
0000
ENDCHAR
STARTCHAR 229
ENCODING 229
SWIDTH    9000    0
DWIDTH    9    0
BBX  9  14  0   -3
BITMAP
0000
0000
0000
0000
0000
3E00
4800
4800
4800
4800
3000
0000
0000
0000
ENDCHAR
STARTCHAR 230
ENCODING 230
SWIDTH    9000    0
DWIDTH    9    0
BBX  9  14  0   -3
BITMAP
0000
0000
0000
0000
0000
4400
4400
4400
4400
4400
7800
4000
4000
8000
ENDCHAR
STARTCHAR 231
ENCODING 231
SWIDTH    9000    0
DWIDTH    9    0
BBX  9  14  0   -3
BITMAP
0000
0000
0000
0000
0000
3200
4C00
0800
0800
0800
0800
0800
0000
0000
ENDCHAR
STARTCHAR 232
ENCODING 232
SWIDTH    9000    0
DWIDTH    9    0
BBX  9  14  0   -3
BITMAP
0000
7C00
1000
1000
3800
4400
4400
4400
3800
1000
1000
7C00
0000
0000
ENDCHAR
STARTCHAR 233
ENCODING 233
SWIDTH    9000    0
DWIDTH    9    0
BBX  9  14  0   -3
BITMAP
0000
0000
1800
2400
4200
4200
7E00
4200
4200
2400
1800
0000
0000
0000
ENDCHAR
STARTCHAR 234
ENCODING 234
SWIDTH    9000    0
DWIDTH    9    0
BBX  9  14  0   -3
BITMAP
0000
0000
0000
1C00
2200
4100
4100
2200
1400
1400
3600
0000
0000
0000
ENDCHAR
STARTCHAR 235
ENCODING 235
SWIDTH    9000    0
DWIDTH    9    0
BBX  9  14  0   -3
BITMAP
0000
0000
3C00
1000
0800
0400
1C00
2400
2400
2400
1800
0000
0000
0000
ENDCHAR
STARTCHAR 236
ENCODING 236
SWIDTH    9000    0
DWIDTH    9    0
BBX  9  14  0   -3
BITMAP
0000
0000
0000
0000
0000
3600
4900
4900
3600
0000
0000
0000
0000
0000
ENDCHAR
STARTCHAR 237
ENCODING 237
SWIDTH    9000    0
DWIDTH    9    0
BBX  9  14  0   -3
BITMAP
0000
0000
0000
0080
0100
1E00
2300
2D00
3100
1E00
2000
4000
0000
0000
ENDCHAR
STARTCHAR 238
ENCODING 238
SWIDTH    9000    0
DWIDTH    9    0
BBX  9  14  0   -3
BITMAP
0000
0000
0E00
1000
2000
2000
3C00
2000
2000
1000
0E00
0000
0000
0000
ENDCHAR
STARTCHAR 239
ENCODING 239
SWIDTH    9000    0
DWIDTH    9    0
BBX  9  14  0   -3
BITMAP
0000
0000
0000
3C00
4200
4200
4200
4200
4200
4200
4200
0000
0000
0000
ENDCHAR
STARTCHAR 240
ENCODING 240
SWIDTH    9000    0
DWIDTH    9    0
BBX  9  14  0   -3
BITMAP
0000
0000
0000
0000
0000
7C00
0000
7C00
0000
7C00
0000
0000
0000
0000
ENDCHAR
STARTCHAR 241
ENCODING 241
SWIDTH    9000    0
DWIDTH    9    0
BBX  9  14  0   -3
BITMAP
0000
0000
0000
0000
1000
1000
7C00
1000
1000
0000
7C00
0000
0000
0000
ENDCHAR
STARTCHAR 242
ENCODING 242
SWIDTH    9000    0
DWIDTH    9    0
BBX  9  14  0   -3
BITMAP
0000
0000
4000
2000
1000
0800
1000
2000
4000
0000
7C00
0000
0000
0000
ENDCHAR
STARTCHAR 243
ENCODING 243
SWIDTH    9000    0
DWIDTH    9    0
BBX  9  14  0   -3
BITMAP
0000
0000
0400
0800
1000
2000
1000
0800
0400
0000
7C00
0000
0000
0000
ENDCHAR
STARTCHAR 244
ENCODING 244
SWIDTH    9000    0
DWIDTH    9    0
BBX  9  14  0   -3
BITMAP
0000
0000
0E00
1B00
1B00
1800
1800
1800
1800
1800
1800
1800
1800
1800
ENDCHAR
STARTCHAR 245
ENCODING 245
SWIDTH    9000    0
DWIDTH    9    0
BBX  9  14  0   -3
BITMAP
1800
1800
1800
1800
1800
1800
1800
1800
D800
D800
7000
0000
0000
0000
ENDCHAR
STARTCHAR 246
ENCODING 246
SWIDTH    9000    0
DWIDTH    9    0
BBX  9  14  0   -3
BITMAP
0000
0000
0000
0000
1000
0000
0000
7C00
0000
0000
1000
0000
0000
0000
ENDCHAR
STARTCHAR 247
ENCODING 247
SWIDTH    9000    0
DWIDTH    9    0
BBX  9  14  0   -3
BITMAP
0000
0000
0000
0000
0000
3200
4C00
0000
3200
4C00
0000
0000
0000
0000
ENDCHAR
STARTCHAR 248
ENCODING 248
SWIDTH    9000    0
DWIDTH    9    0
BBX  9  14  0   -3
BITMAP
0000
0000
1800
2400
2400
1800
0000
0000
0000
0000
0000
0000
0000
0000
ENDCHAR
STARTCHAR 249
ENCODING 249
SWIDTH    9000    0
DWIDTH    9    0
BBX  9  14  0   -3
BITMAP
0000
0000
0000
0000
0000
0000
1800
1800
0000
0000
0000
0000
0000
0000
ENDCHAR
STARTCHAR 250
ENCODING 250
SWIDTH    9000    0
DWIDTH    9    0
BBX  9  14  0   -3
BITMAP
0000
0000
0000
0000
0000
0000
0000
1800
0000
0000
0000
0000
0000
0000
ENDCHAR
STARTCHAR 251
ENCODING 251
SWIDTH    9000    0
DWIDTH    9    0
BBX  9  14  0   -3
BITMAP
0780
0400
0400
0400
0400
0400
4400
2400
1400
0C00
0400
0000
0000
0000
ENDCHAR
STARTCHAR 252
ENCODING 252
SWIDTH    9000    0
DWIDTH    9    0
BBX  9  14  0   -3
BITMAP
7800
4400
4400
4400
4400
4400
0000
0000
0000
0000
0000
0000
0000
0000
ENDCHAR
STARTCHAR 253
ENCODING 253
SWIDTH    9000    0
DWIDTH    9    0
BBX  9  14  0   -3
BITMAP
3800
4400
0800
1000
2000
7C00
0000
0000
0000
0000
0000
0000
0000
0000
ENDCHAR
STARTCHAR 254
ENCODING 254
SWIDTH    9000    0
DWIDTH    9    0
BBX  9  14  0   -3
BITMAP
0000
0000
0000
0000
3C00
3C00
3C00
3C00
3C00
3C00
0000
0000
0000
0000
ENDCHAR
STARTCHAR 255
ENCODING 255
SWIDTH    9000    0
DWIDTH    9    0
BBX  9  14  0   -3
BITMAP
0000
0000
0000
0000
0000
0000
0000
0000
0000
0000
0000
0000
0000
0000
ENDCHAR
ENDFONT
